<?xml version="1.0" encoding="UTF-8"?>
<svg id="Camada_2" xmlns="http://www.w3.org/2000/svg" xmlns:xlink="http://www.w3.org/1999/xlink" viewBox="0 0 963.48 397.84">
  <defs>
    <style>
      .cls-1 {
        fill: #b3b3b2;
      }

      .cls-2 {
        fill: url(#Gradiente_sem_nome_2);
      }

      .cls-3 {
        fill: url(#Gradiente_sem_nome_2-3);
      }

      .cls-4 {
        fill: url(#Gradiente_sem_nome_2-4);
      }

      .cls-5 {
        fill: url(#Gradiente_sem_nome_2-2);
      }
    </style>
    <linearGradient id="Gradiente_sem_nome_2" data-name="Gradiente sem nome 2" x1="-36.24" y1="22.38" x2="1002.24" y2="281.13" gradientUnits="userSpaceOnUse">
      <stop offset="0" stop-color="#d70673"/>
      <stop offset=".83" stop-color="#5c348a"/>
    </linearGradient>
    <linearGradient id="Gradiente_sem_nome_2-2" data-name="Gradiente sem nome 2" x1="-50.73" y1="80.53" x2="987.76" y2="339.28" xlink:href="#Gradiente_sem_nome_2"/>
    <linearGradient id="Gradiente_sem_nome_2-3" data-name="Gradiente sem nome 2" x1="-8.48" y1="-89.04" x2="1030.01" y2="169.7" xlink:href="#Gradiente_sem_nome_2"/>
    <linearGradient id="Gradiente_sem_nome_2-4" data-name="Gradiente sem nome 2" x1="-24.35" y1="-25.35" x2="1014.13" y2="233.4" xlink:href="#Gradiente_sem_nome_2"/>
  </defs>
  <g id="Camada_1-2" data-name="Camada_1">
    <g>
      <g>
        <path class="cls-2" d="M429.93,181.93c-1.04-.1-2.07-.13-3.1-.11l-83.13.41-.2-30.56,80.61-.4c16.92-.37,29.83-13.36,30.17-30.35.05-15.19-12.24-28.62-27.42-29.98-1.05-.1-2.08-.14-3.12-.11l-80.61.39-.19-28.04,83.13-.41c16.92-.36,29.83-13.34,30.18-30.32.04-15.2-12.27-28.63-27.47-29.99-1.04-.1-2.07-.13-3.1-.11l-117.47.56c-21.05,0-37.22,13.59-37.34,34.78,0,1.29-.04,166.72-.04,166.72.14,24.97,13.94,38.57,38.91,38.46l117.48-.62c16.92-.37,29.83-13.36,30.17-30.35.03-15.2-12.27-28.63-27.47-29.99Z"/>
        <path class="cls-5" d="M198.77.13c-1.26-.11-2.53-.15-3.79-.13-20.12.39-34.19,15.84-34.53,36.04v52.21h-85.57v-51.93c.07-17.99-15.5-33.81-33.5-35.45-1.26-.12-2.54-.16-3.81-.13C17.45,1.16,3.55,16.6,3.2,36.8v172.18c-.08,17.99,14.09,33.91,32.08,35.55,1.29.12,2.58.17,3.85.13,20.11-.4,35.46-15.85,35.82-36.03l-.07-58.93h85.57v58.52c-.1,17.98,14.19,33.94,32.2,35.61,1.3.13,2.6.17,3.89.13v-.07c20.12-.37,35.49-15.82,35.83-36.03l-.24-172.17c.07-18-15.34-33.92-33.35-35.56Z"/>
        <path class="cls-3" d="M837.75.58c-70.16-1.66-124.64,52.03-124.16,122.37v-.04c.48,72.15,55.2,121.03,125.73,120.49,70.15,1.68,124.62-51.99,124.16-122.32-.47-72.14-55.22-121.02-125.73-120.51ZM838.86,172.82c-29.53.22-52.43-20.24-52.63-50.44v.02c-.21-29.45,22.6-51.92,51.97-51.23,29.52-.21,52.44,20.25,52.63,50.45.19,29.44-22.61,51.91-51.98,51.21Z"/>
        <path class="cls-4" d="M700.88,83.48c-.29-44.94-30.89-82.19-87.29-81.9l-90,.47c-21.64,0-37.08,13.53-37.2,34.74,0,1.27-.15,172.54-.15,172.54-.06,18.22,14.66,34.34,32.89,35.99,1.28.12,2.57.17,3.85.13,20.38-.38,35.93-16.03,36.29-36.48l-.3-44.22,27.42-.13,47.05,65.55c7.11,9.37,18.18,14.86,29.38,14.62,20.42-.27,36.04-15.99,36.27-36.5.02-8.03-2.84-16.06-8.09-22.61l-26.55-33c23.55-14.4,37.25-40.4,36.43-69.2ZM603.05,104.08l-44.45.21-.26-42.07,44.45-.21c10.83-1.26,21.39,6.64,23.6,17.67.21,1.02.34,2.04.38,3.07-.62,12.73-10.93,22-23.73,21.33Z"/>
      </g>
      <g>
        <path class="cls-1" d="M39.9,397.67c-8.14,0-15.83-1.38-23.08-4.15-7.25-2.76-12.86-6.34-16.82-10.72l3.6-5.95c3.76,3.86,8.89,7.12,15.41,9.78,6.52,2.66,13.43,3.99,20.73,3.99s13.27-.96,17.92-2.89c4.64-1.93,8.08-4.51,10.33-7.74,2.24-3.23,3.36-6.83,3.36-10.8,0-4.69-1.25-8.45-3.76-11.27-2.5-2.82-5.79-5.06-9.86-6.73-4.07-1.67-8.5-3.08-13.3-4.22-4.8-1.15-9.65-2.37-14.55-3.68-4.9-1.3-9.39-3-13.46-5.09-4.07-2.09-7.33-4.93-9.78-8.53-2.45-3.6-3.68-8.27-3.68-14,0-5.21,1.35-10.01,4.07-14.39,2.71-4.38,6.94-7.93,12.67-10.64,5.74-2.71,13.09-4.07,22.06-4.07,6.05,0,12.02.89,17.92,2.66,5.89,1.77,10.93,4.17,15.1,7.2l-2.97,6.42c-4.59-3.13-9.52-5.45-14.79-6.96-5.27-1.51-10.35-2.27-15.26-2.27-6.99,0-12.78.99-17.37,2.97-4.59,1.98-7.98,4.62-10.17,7.9-2.19,3.29-3.29,6.96-3.29,11.03,0,4.69,1.22,8.45,3.68,11.27,2.45,2.82,5.71,5.06,9.78,6.73,4.07,1.67,8.55,3.08,13.46,4.22,4.9,1.15,9.75,2.37,14.55,3.68,4.8,1.31,9.23,3,13.3,5.09,4.07,2.09,7.35,4.9,9.86,8.45,2.5,3.55,3.76,8.14,3.76,13.77,0,5.11-1.41,9.88-4.22,14.32-2.82,4.43-7.12,7.98-12.91,10.64-5.79,2.66-13.22,3.99-22.3,3.99Z"/>
        <path class="cls-1" d="M142.54,389.69h67.59v7.2h-75.57v-109.53h73.23v7.2h-65.25v95.13ZM141.6,337.75h59.3v7.04h-59.3v-7.04Z"/>
        <path class="cls-1" d="M458.91,397.67c-13.56,0-24.25-3.96-32.08-11.89-7.82-7.93-11.73-19.71-11.73-35.36v-63.06h7.98v62.74c0,13.67,3.13,23.78,9.39,30.35,6.26,6.57,15.12,9.86,26.6,9.86s20.18-3.29,26.44-9.86c6.26-6.57,9.39-16.69,9.39-30.35v-62.74h7.98v63.06c0,15.65-3.91,27.44-11.73,35.36-7.82,7.93-18.57,11.89-32.23,11.89Z"/>
        <path class="cls-1" d="M568.28,396.89v-109.53h39.27c9.18,0,17.05,1.46,23.63,4.38,6.57,2.92,11.63,7.12,15.18,12.6,3.55,5.48,5.32,12.13,5.32,19.95s-1.77,14.16-5.32,19.64c-3.55,5.48-8.61,9.7-15.18,12.67-6.57,2.97-14.45,4.46-23.63,4.46h-34.89l3.6-3.76v39.59h-7.98ZM576.26,357.77l-3.6-3.76h34.89c11.79,0,20.73-2.61,26.83-7.82,6.1-5.21,9.15-12.52,9.15-21.91s-3.05-16.82-9.15-21.98c-6.1-5.16-15.05-7.74-26.83-7.74h-34.89l3.6-3.91v67.12ZM644.33,396.89l-28.48-39.74h9.08l28.48,39.74h-9.08Z"/>
        <path class="cls-1" d="M755.57,397.67c-8.14,0-15.67-1.38-22.61-4.15-6.94-2.76-12.99-6.67-18.15-11.73-5.16-5.06-9.15-10.95-11.97-17.68-2.82-6.73-4.22-14.06-4.22-21.98s1.41-15.26,4.22-21.98c2.82-6.73,6.81-12.62,11.97-17.68,5.16-5.06,11.21-8.97,18.15-11.73,6.94-2.76,14.47-4.15,22.61-4.15s15.67,1.38,22.61,4.15c6.94,2.76,12.96,6.65,18.07,11.66,5.11,5.01,9.1,10.87,11.97,17.6,2.87,6.73,4.3,14.11,4.3,22.14s-1.43,15.41-4.3,22.14c-2.87,6.73-6.86,12.6-11.97,17.6-5.11,5.01-11.14,8.89-18.07,11.66-6.94,2.76-14.47,4.15-22.61,4.15ZM755.57,390.32c6.99,0,13.46-1.2,19.4-3.6,5.95-2.4,11.11-5.79,15.49-10.17,4.38-4.38,7.8-9.49,10.25-15.33,2.45-5.84,3.68-12.2,3.68-19.09s-1.23-13.38-3.68-19.17c-2.45-5.79-5.87-10.87-10.25-15.26-4.38-4.38-9.54-7.77-15.49-10.17-5.95-2.4-12.41-3.6-19.4-3.6s-13.46,1.2-19.4,3.6c-5.95,2.4-11.14,5.79-15.57,10.17-4.44,4.38-7.88,9.47-10.33,15.26-2.45,5.79-3.68,12.18-3.68,19.17s1.23,13.25,3.68,19.09c2.45,5.84,5.89,10.95,10.33,15.33,4.43,4.38,9.62,7.77,15.57,10.17,5.94,2.4,12.41,3.6,19.4,3.6Z"/>
        <path class="cls-1" d="M897.17,397.67c-8.14,0-15.83-1.38-23.08-4.15-7.25-2.76-12.86-6.34-16.82-10.72l3.6-5.95c3.76,3.86,8.89,7.12,15.41,9.78,6.52,2.66,13.43,3.99,20.73,3.99s13.27-.96,17.92-2.89c4.64-1.93,8.08-4.51,10.33-7.74,2.24-3.23,3.36-6.83,3.36-10.8,0-4.69-1.25-8.45-3.76-11.27-2.5-2.82-5.79-5.06-9.86-6.73-4.07-1.67-8.5-3.08-13.3-4.22-4.8-1.15-9.65-2.37-14.55-3.68-4.9-1.3-9.39-3-13.46-5.09-4.07-2.09-7.33-4.93-9.78-8.53-2.45-3.6-3.68-8.27-3.68-14,0-5.21,1.35-10.01,4.07-14.39,2.71-4.38,6.94-7.93,12.67-10.64,5.74-2.71,13.09-4.07,22.06-4.07,6.05,0,12.02.89,17.92,2.66,5.89,1.77,10.93,4.17,15.1,7.2l-2.97,6.42c-4.59-3.13-9.52-5.45-14.79-6.96-5.27-1.51-10.35-2.27-15.26-2.27-6.99,0-12.78.99-17.37,2.97-4.59,1.98-7.98,4.62-10.17,7.9-2.19,3.29-3.29,6.96-3.29,11.03,0,4.69,1.22,8.45,3.68,11.27,2.45,2.82,5.71,5.06,9.78,6.73,4.07,1.67,8.55,3.08,13.46,4.22,4.9,1.15,9.75,2.37,14.55,3.68,4.8,1.31,9.23,3,13.3,5.09,4.07,2.09,7.35,4.9,9.86,8.45,2.5,3.55,3.76,8.14,3.76,13.77,0,5.11-1.41,9.88-4.22,14.32-2.82,4.43-7.12,7.98-12.91,10.64-5.79,2.66-13.22,3.99-22.3,3.99Z"/>
        <path class="cls-1" d="M312.69,397.84c-8.4,0-15.94-1.35-22.42-4.01-6.46-2.65-11.98-6.47-16.39-11.33-4.42-4.87-7.82-10.79-10.11-17.58-2.3-6.82-3.47-14.5-3.47-22.82,0-11.04,2.05-20.85,6.08-29.17,4.02-8.29,9.97-14.83,17.68-19.45,7.72-4.63,17.36-6.97,28.63-6.97s21.33,2.54,28.8,7.55c7.2,4.83,12.4,11.2,15.47,18.95l-7.69,2.18c-2.8-6.5-7.27-11.79-13.3-15.72-6.23-4.07-13.99-6.16-23.04-6.21-9.76,0-18,2.09-24.51,6.21-6.51,4.12-11.47,9.95-14.74,17.31-3.24,7.31-4.94,15.83-5.05,25.31-.11,9.49,1.5,18,4.77,25.3,3.29,7.34,8.3,13.18,14.9,17.35,6.58,4.17,14.87,6.28,24.63,6.28h.41c9.12,0,16.72-1.71,22.59-5.09,5.98-3.44,10.49-8.36,13.41-14.6,2.89-6.19,4.47-13.53,4.69-21.81l.02.85h-29.26v-7.95h37.43c.1.97.17,1.93.19,2.87.03,1.2.04,2.12.04,2.77,0,9.44-1.8,18.02-5.35,25.52-3.53,7.45-9.02,13.42-16.32,17.74-7.32,4.33-16.78,6.52-28.11,6.52Z"/>
      </g>
    </g>
  </g>
</svg>